<svg width="230" height="230" viewBox="0 0 230 230" fill="none" xmlns="http://www.w3.org/2000/svg">
<g clip-path="url(#clip0)">
<circle cx="116.5" cy="157.5" r="72.5" fill="#E5F5ED"/>
<mask id="mask0" mask-type="alpha" maskUnits="userSpaceOnUse" x="12" y="20" width="209" height="209">
<circle cx="116.5" cy="124.5" r="104.5" fill="#E5F5ED"/>
</mask>
<g mask="url(#mask0)">
<path d="M150.078 111.387C150.078 111.387 153.529 115.338 151.114 123.224C148.698 131.109 134.307 139.185 110.978 139.185C87.6494 139.185 80.7818 124.604 83.3701 115.027C83.3701 115.027 87.4423 119.359 89.4957 115.027C91.549 110.696 88.6502 97.5826 87.5459 91.595C86.4415 85.6075 88.9608 69.5947 93.0847 65.8676C97.2087 62.1405 105.163 61.2087 120.486 55.8251C139.587 49.0956 139.467 73.7014 139.139 85.7973C138.811 97.8931 139.881 113.198 144.315 114.527C147.904 115.649 149.82 113.94 150.078 111.387Z" fill="#00984A"/>
<path d="M43.422 120.739C46.7022 120.245 49.9307 119.454 53.0676 118.375C52.3084 114.838 51.7562 111.387 51.7562 111.387C51.7562 111.387 41.4032 109.661 42.2659 112.094C42.8938 114.938 43.2805 117.83 43.422 120.739Z" fill="#F4F9FF"/>
<path d="M53.5497 103.156C53.5497 102.88 50.4265 102.57 50.7371 94.4081C48.3071 94.2425 45.866 94.3874 43.4727 94.8395C41.1087 95.5642 38.2961 102.742 42.144 108.885C44.0766 111.957 43.8695 114.993 44.8876 115.684C45.9057 116.374 46.4923 116.546 48.028 115.304C48.3731 115.028 49.3567 115.304 49.7536 115.166C51.1726 113.319 52.7363 111.588 54.4297 109.99C54.8765 109.579 55.1822 109.037 55.303 108.442C55.4239 107.847 55.3538 107.229 55.1026 106.677C54.3089 105.106 53.5497 103.312 53.5497 103.156Z" fill="#E8FAFF"/>
<path d="M53.5155 103.122C53.3257 103.122 52.2387 102.604 51.5139 100.378C51.4277 100.085 51.3414 99.7569 51.2551 99.3945V99.1702C51.2551 98.7906 51.1171 98.3937 51.0653 97.9278C51.0653 97.4964 51.0653 97.0306 50.9618 96.5302C50.9618 96.4094 50.9618 96.2713 50.9618 96.1333C50.9618 95.5984 50.9618 95.029 50.9618 94.4078L50.6857 94.2697L50.3924 94.1317L50.0127 94.0109C48.6519 93.8771 47.2782 94.0357 45.9836 94.4761C44.6891 94.9166 43.5036 95.6287 42.5068 96.5647C42.5068 96.5647 42.5068 96.6855 42.4032 96.7372C41.7728 97.7779 41.4395 98.9715 41.4395 100.188C41.4395 101.405 41.7728 102.599 42.4032 103.639V103.639L42.6966 103.898C43.7836 104.83 47.0621 107.729 48.9084 107.919C50.7547 108.108 50.4786 107.108 52.463 106.78C53.6881 106.555 53.6881 104.623 53.5155 103.122Z" fill="#006636"/>
<path d="M59.1943 95.0451C54.5527 93.8718 54.3801 100.101 54.1903 100.86C53.1376 102.716 51.9676 104.502 50.6875 106.209C47.2365 112.024 49.6005 115.165 49.6005 115.165C51.326 114.561 56.33 108.694 56.6061 108.021C57.1326 106.536 57.5705 105.02 57.9174 103.483C57.9174 103.31 58.8147 99.2208 59.4877 97.0467C59.7465 96.46 60.0226 95.2522 59.1943 95.0451Z" fill="#E8FAFF"/>
<path d="M54.5338 85.0366C51.3863 86.2476 48.33 87.6835 45.3885 89.3331C44.1175 90.6269 42.9627 92.03 41.9375 93.5261C41.9375 93.5261 53.2396 88.9535 55.3793 88.0907C55.7234 87.9867 56.0264 87.7778 56.2461 87.4932C56.4657 87.2086 56.591 86.8625 56.6044 86.5033C56.6225 86.2489 56.5747 85.9941 56.4656 85.7636C56.3566 85.533 56.19 85.3345 55.9819 85.1871C55.7738 85.0397 55.5312 84.9484 55.2776 84.922C55.0239 84.8957 54.7677 84.9351 54.5338 85.0366Z" fill="#E8FAFF"/>
<g style="mix-blend-mode:multiply">
<path d="M56.8459 95.2889L53.7917 87.7656L51.3242 89.077L55.8623 95.8583C56.1784 95.6488 56.5068 95.4586 56.8459 95.2889Z" fill="#BBE3FF"/>
</g>
<g style="mix-blend-mode:multiply">
<path d="M51.3242 89.077L54.2231 93.4253L55.7588 92.6143L53.7917 87.7656L51.3242 89.077Z" fill="#EBE7E7"/>
</g>
<path d="M46.3663 73.2958L43.5449 74.7891L52.4801 91.6718L55.3015 90.1786L46.3663 73.2958Z" fill="#E7F3FD"/>
<g style="mix-blend-mode:multiply">
<path d="M43.873 74.6326L52.8112 91.5081L54.1744 90.5936L44.8911 74.0977L43.873 74.6326Z" fill="#E5EEFF"/>
</g>
<path d="M56.1061 88.9547C56.1061 88.8167 55.8128 88.7822 55.6057 88.9547L51.2919 91.2324C51.0849 91.3359 50.9813 91.543 51.0676 91.681L51.2747 92.0779C51.2747 92.2159 51.568 92.2505 51.7751 92.0779L56.0889 89.8002C56.2959 89.6967 56.3995 89.4896 56.3132 89.3516L56.1061 88.9547Z" fill="white"/>
<path d="M37.7285 60.501L42.9396 70.785L43.3882 70.5435L37.832 60.4492L37.7285 60.501Z" fill="#0CB6E1"/>
<path d="M57.383 94.5483L54.9121 95.8555L55.3075 96.6028L57.7784 95.2957L57.383 94.5483Z" fill="#E7F4FF"/>
<path d="M42.4746 70.5798L44.2174 74.445L45.7013 73.6512L43.4927 70.0449L42.4746 70.5798Z" fill="#00FFFF"/>
<path d="M56.0892 89.8534C56.2963 89.7499 56.3998 89.5428 56.3135 89.4048L56.1064 88.9562C56.1064 88.8181 55.8131 88.7836 55.606 88.9562L54.8641 89.353L54.2429 88.1797H54.1394L53.5182 88.542C52.987 88.8267 52.4396 89.0802 51.8789 89.3013L51.3613 89.5083L52.0515 90.8025L51.3095 91.1993C51.1025 91.3029 50.9989 91.5099 51.0852 91.648L51.2923 92.0448C51.2923 92.1829 51.5856 92.2174 51.7927 92.0448L52.9833 91.4237L54.2601 93.339L54.9504 94.3743C55.4507 94.2535 55.9339 94.1672 56.4515 94.0982L54.9504 90.3883L56.0892 89.8534Z" fill="#DDF1FF"/>
<path d="M56.0695 86.0063C53.2741 87.0416 46.5446 89.7679 46.3376 89.8024C46.1305 89.8369 41.0748 92.0456 40.7642 92.7875C40.4536 93.5295 39.6426 96.2386 39.6426 96.2386C40.5571 96.5837 45.0607 92.7013 47.5972 92.3734C49.4983 91.9916 51.3121 91.2603 52.9463 90.2165C53.681 90.2031 54.4057 90.0436 55.0782 89.7474C55.7506 89.4511 56.3574 89.0241 56.8632 88.491C58.2436 86.5239 56.5526 85.8165 56.0695 86.0063Z" fill="#E8FAFF"/>
<path d="M55.0188 93.0646L53.3968 92.4089C51.7894 91.8079 50.067 91.5778 48.3583 91.736C45.3731 92.0121 41.0593 92.3399 40.766 92.7713C39.7721 94.0958 38.9055 95.5113 38.1777 96.9988C38.1777 97.2921 38.6609 101.088 38.6609 101.088C40.0758 100.312 44.7865 95.2388 44.959 95.256C46.6168 95.2899 48.2742 95.1744 49.9112 94.9109C51.4183 95.6144 53.142 95.695 54.7082 95.1352C54.9048 95.0464 55.0795 94.9154 55.2197 94.7513C55.3598 94.5873 55.4621 94.3943 55.5191 94.1862C55.5636 93.9704 55.5393 93.7461 55.4495 93.5449C55.3597 93.3436 55.2091 93.1757 55.0188 93.0646V93.0646Z" fill="#E8FAFF"/>
<path d="M48.5472 95.3214C46.814 95.1248 45.0595 95.2476 43.3706 95.6838C41.8867 96.1324 40.5408 96.4775 40.5408 96.4775C40.2474 97.323 39.0223 95.7873 38.3321 96.7536C38.0347 98.3109 37.9477 99.901 38.0733 101.481C39.3417 105.85 41.1441 110.046 43.4396 113.974C45.3204 116.735 46.4075 116.217 46.4075 116.217C45.707 114.749 45.1299 113.226 44.682 111.662C44.5094 111.196 47.8569 108.038 45.7346 106.244C44.7333 105.426 43.9709 104.353 43.5276 103.139C43.0842 101.924 42.9764 100.613 43.2153 99.3419C43.6319 99.2652 44.0376 99.1377 44.4232 98.9622C45.7647 98.3291 47.2369 98.0216 48.7197 98.065C49.4493 98.1296 50.1805 97.9604 50.8076 97.5818C51.308 97.3403 53.3613 96.0461 48.5472 95.3214Z" fill="#E8FAFF"/>
<path d="M131.319 89.1114C133.89 95.4613 134.77 100.448 132.544 106.815C131.181 110.663 129.093 112.647 132.855 115.702C134.666 117.151 137.651 118.79 140.102 118.014C142.078 117.389 143.861 116.266 145.278 114.753C144.952 114.698 144.629 114.623 144.312 114.528C139.946 113.2 138.825 97.8943 139.135 85.7984C139.515 73.9786 139.567 50.2183 121.742 55.4294C134.218 67.1456 124.883 73.3057 131.319 89.1114Z" fill="#006636"/>
<path d="M117.394 90.3025C117.394 90.3025 115.669 119.377 125.366 125.175C125.366 125.175 129.749 145.502 111.734 144.984C93.72 144.466 94.4792 126.59 94.4792 126.59C94.4792 126.59 103.486 125.814 99.1036 98.1536C99.1381 98.1536 112.804 88.9566 117.394 90.3025Z" fill="#E8FAFF"/>
<path d="M115.462 134.491C117.498 128.724 117.226 122.393 114.703 116.822C110.665 108.056 114.186 99.5668 114.168 90.5079C115.21 90.1742 116.319 90.103 117.395 90.3008C117.395 90.3008 115.669 119.376 125.367 125.173C125.367 125.173 129.75 145.5 111.735 144.982C110.312 144.939 108.897 144.759 107.508 144.447C111.081 141.984 113.849 138.52 115.462 134.491V134.491Z" fill="#006636"/>
<path d="M114.635 90.4062C114.083 93.029 112.616 95.324 112.098 97.964C111.577 101.512 110.407 104.934 108.647 108.058C106.57 111.55 103.59 114.418 100.02 116.358C100.517 110.27 100.203 104.142 99.0879 98.1366C99.0879 98.1366 108.82 91.6659 114.635 90.4062Z" fill="#006636"/>
<path d="M87.4245 67.1442C87.4245 67.1442 93.9814 62.6406 111.996 67.1442C111.996 67.1442 108.648 85.2793 114.705 86.3146L118.156 83.4158C118.742 83.1284 119.394 83.001 120.046 83.0464C120.698 83.0918 121.326 83.3084 121.867 83.6743C122.408 84.0403 122.842 84.5425 123.127 85.1304C123.412 85.7182 123.536 86.3708 123.488 87.0221C123.108 90.8182 118.794 93.0614 117.448 93.1994C117.448 93.1994 108.096 109.902 96.1728 106.21C84.2495 102.517 85.7162 85.0205 86.1304 80.1373C86.5445 75.2541 87.4245 67.1442 87.4245 67.1442Z" fill="#E8FAFF"/>
<path d="M119.502 55.2564C119.502 55.2564 109.01 47.2155 91.1513 53.2375C75.4491 58.5348 75.6217 78.7061 90.2886 76.1351C104.955 73.5641 115.688 68.5773 119.502 55.2564Z" fill="#00984A"/>
<path d="M78.0352 231.448C78.0352 231.448 87.5427 200.061 84.9372 184.859C82.3317 169.658 81.745 128.866 81.745 128.866C81.745 128.866 87.6808 126.244 92.4605 123.69C94.2822 122.647 96.208 121.796 98.2064 121.153C100.674 124.518 108.456 134.958 110.285 135.199C112.373 135.458 121.052 118.289 121.052 118.289C121.052 118.289 148.66 128.832 155.079 129.522C155.079 129.522 147.867 162.048 147.867 184.169C147.867 206.29 158.668 220.716 159.945 231.517L78.0352 231.448Z" fill="url(#paint0_linear)"/>
<path style="mix-blend-mode:multiply" opacity="0.55" d="M94.7036 231.45H78.0352C78.0352 231.45 87.5427 200.063 84.9372 184.861C82.9874 173.334 82.1246 147.072 81.814 135.062C82.9874 139.859 85.869 144.259 87.2494 150.213C88.6298 156.166 87.4737 162.584 89.4236 168.71C90.9075 173.369 95.1523 176.475 97.2919 180.789C103.193 192.643 89.6824 202.737 92.8056 215.299C94.2895 221.166 94.0824 226.446 94.7036 231.45Z" fill="url(#paint1_linear)"/>
<path style="mix-blend-mode:multiply" opacity="0.55" d="M126.489 188.864C128.37 184.498 127.576 180.15 126.144 175.819C124.845 171.935 124.555 167.785 125.3 163.759C126.046 159.733 127.803 155.962 130.406 152.801C137.411 144.328 146.608 136.909 154.839 129.938C153.907 134.269 147.764 163.568 147.764 184.032C147.764 206.171 158.566 220.579 159.843 231.38H128.042C128.271 227.528 127.64 223.674 126.195 220.096C124.246 214.16 128.646 211.468 128.646 206.084C128.646 199.786 123.555 195.662 126.489 188.864Z" fill="url(#paint2_linear)"/>
<path d="M113.386 147.696C113.795 147.688 114.113 146.925 114.096 145.991C114.078 145.057 113.732 144.306 113.322 144.314C112.912 144.322 112.594 145.085 112.612 146.019C112.63 146.953 112.976 147.703 113.386 147.696Z" fill="white"/>
<path d="M114.039 163.986C114.448 163.979 114.766 163.215 114.748 162.282C114.73 161.348 114.384 160.597 113.974 160.605C113.565 160.613 113.247 161.376 113.265 162.31C113.282 163.244 113.629 163.994 114.039 163.986Z" fill="white"/>
<path d="M114.677 180.258C115.087 180.25 115.405 179.487 115.387 178.553C115.369 177.619 115.023 176.869 114.613 176.877C114.203 176.884 113.885 177.648 113.903 178.581C113.921 179.515 114.268 180.266 114.677 180.258Z" fill="#100142"/>
<path d="M115.323 196.552C115.732 196.544 116.05 195.788 116.033 194.864C116.015 193.94 115.669 193.197 115.259 193.205C114.85 193.212 114.532 193.968 114.549 194.892C114.567 195.816 114.913 196.559 115.323 196.552Z" fill="white"/>
<path d="M115.965 212.844C116.375 212.836 116.693 212.073 116.675 211.14C116.658 210.206 116.312 209.455 115.902 209.463C115.492 209.47 115.174 210.234 115.192 211.167C115.209 212.101 115.555 212.852 115.965 212.844Z" fill="white"/>
<path d="M116.61 229.133C117.02 229.125 117.338 228.362 117.32 227.428C117.303 226.495 116.956 225.744 116.547 225.752C116.137 225.759 115.819 226.523 115.837 227.456C115.854 228.39 116.201 229.141 116.61 229.133Z" fill="white"/>
<g style="mix-blend-mode:multiply">
<path d="M108.921 135.114C109.111 135.114 109.421 134.734 110.163 135.114C109.887 142.465 111.474 218.094 111.889 231.449H110.077C109.611 224.824 108.576 135.01 108.921 135.114Z" fill="#83A8DE"/>
</g>
<path d="M109.648 135.216L120.951 118.289C120.951 118.289 128.888 120.118 129.129 120.774C129.371 121.429 127.922 135.941 123.642 140.962C123.642 140.876 114.031 137.27 109.648 135.216Z" fill="white"/>
<path d="M99.4509 119.877C99.4509 119.877 108.32 133.854 109.804 135.13C109.804 135.13 99.9168 140.669 98.2085 141.774C98.2085 141.774 92.6869 124.519 92.6523 123.501C92.6696 123.466 97.9324 120.602 99.4509 119.877Z" fill="white"/>
<path d="M54.4826 117.099C54.4826 116.582 40.6785 117.099 40.6785 117.099C40.6785 117.099 32.5168 184.515 49.0818 185.033C65.6467 185.55 75.2923 175.784 86.9223 164.119C86.9223 164.119 85.0415 137.184 81.7458 128.867C71.7216 138.231 63.5958 149.438 57.8129 161.876C57.6584 146.895 56.5461 131.939 54.4826 117.099V117.099Z" fill="url(#paint3_linear)"/>
<path style="mix-blend-mode:multiply" opacity="0.55" d="M45.2852 116.96C49.2711 116.857 54.4304 116.788 54.4649 117.098C56.3404 131.883 57.4577 146.753 57.8124 161.651C56.8116 165.844 58.1402 167.932 60.832 168.553C66.0086 169.882 69.7875 164.688 71.1851 161.254C73.2385 156.319 75.4817 150.366 79.6574 146.795C81.3829 145.397 83.0049 144.12 84.6786 142.826C86.1108 152.972 86.8873 164.05 86.8873 164.05C76.5342 174.403 67.9066 183.203 54.5167 184.756C49.1158 181.857 50.3754 177.491 50.1684 172.574C50.1318 170.266 49.9705 167.962 49.6852 165.672C48.3221 156.889 43.9738 151.488 47.5283 142.101C50.5825 134.216 49.2366 124.691 45.2852 116.96Z" fill="url(#paint4_linear)"/>
<path d="M81.7443 150.245C80.1553 149.534 78.724 148.513 77.5341 147.243C75.6533 145.189 73.2376 135.319 71.5293 134.025C69.8211 132.731 56.6899 132.3 55.9997 135.06C55.3095 137.821 61.4868 137.114 64.3167 137.269C64.3167 137.269 54.8781 136.838 54.7918 138.995C54.7055 141.152 61.5731 140.72 64.5755 140.72C64.5755 140.72 55.7409 140.962 56.2585 143.464C56.7762 145.966 64.748 144.413 64.748 144.413C64.748 144.413 56.1205 144.413 57.1213 147.243C58.1221 150.072 65.5245 146.984 66.2147 147.674C66.9049 148.364 70.9254 154.887 73.1168 154.576C75.3526 154.59 77.576 154.91 79.7255 155.525L81.7443 150.245Z" fill="#E8FAFF"/>
<path d="M80.4326 145.985L72.0293 157.753C72.0293 157.753 112.337 196.732 128.471 198.924C144.604 201.115 175.301 141.982 157.028 130.49C138.41 118.739 131.784 176.751 128.989 176.233C126.193 175.715 80.4326 145.985 80.4326 145.985Z" fill="url(#paint5_linear)"/>
<path style="mix-blend-mode:multiply" opacity="0.55" d="M76.9643 159.391C79.3077 159.891 81.73 159.891 84.0734 159.391C91.7174 158.304 89.9746 160.496 93.6845 164.085C99.5167 169.745 104.866 170.21 112.096 172.919C118.428 175.232 121.724 180.788 127.384 183.859C135.545 188.363 141.309 173.265 142.741 168.071C145.295 158.857 144.208 153.249 145.691 146.14C147.044 139.776 150.236 133.95 154.871 129.385C155.626 129.65 156.349 129.997 157.028 130.42C175.284 142.016 144.587 201.114 128.471 198.923C112.355 196.732 72.0293 157.752 72.0293 157.752L72.6505 156.872C73.8612 158.051 75.3423 158.916 76.9643 159.391V159.391Z" fill="url(#paint6_linear)"/>
</g>
</g>
<defs>
<linearGradient id="paint0_linear" x1="117.705" y1="130.419" x2="119.068" y2="241.215" gradientUnits="userSpaceOnUse">
<stop stop-color="#12EE4C"/>
<stop offset="1" stop-color="#00984A"/>
</linearGradient>
<linearGradient id="paint1_linear" x1="79.1222" y1="181.582" x2="108.629" y2="242.303" gradientUnits="userSpaceOnUse">
<stop stop-color="#B0C9F8"/>
<stop offset="1" stop-color="#71BBF2"/>
</linearGradient>
<linearGradient id="paint2_linear" x1="9868.33" y1="6308.83" x2="6957.54" y2="8578.89" gradientUnits="userSpaceOnUse">
<stop stop-color="#B0C9F8"/>
<stop offset="1" stop-color="#71BBF2"/>
</linearGradient>
<linearGradient id="paint3_linear" x1="69.046" y1="128.125" x2="43.4566" y2="189.346" gradientUnits="userSpaceOnUse">
<stop stop-color="#12EE4C"/>
<stop offset="1" stop-color="#00984A"/>
</linearGradient>
<linearGradient id="paint4_linear" x1="13322.2" y1="3866.72" x2="12174.9" y2="5475.6" gradientUnits="userSpaceOnUse">
<stop stop-color="#B0C9F8"/>
<stop offset="1" stop-color="#71BBF2"/>
</linearGradient>
<linearGradient id="paint5_linear" x1="5671.81" y1="3989.5" x2="5556.84" y2="6713.38" gradientUnits="userSpaceOnUse">
<stop stop-color="#12EE4C"/>
<stop offset="1" stop-color="#00984A"/>
</linearGradient>
<linearGradient id="paint6_linear" x1="25662.3" y1="4640.01" x2="24885.6" y2="6753.03" gradientUnits="userSpaceOnUse">
<stop stop-color="#B0C9F8"/>
<stop offset="1" stop-color="#71BBF2"/>
</linearGradient>
<clipPath id="clip0">
<rect width="230" height="230" fill="white"/>
</clipPath>
</defs>
</svg>
