<svg width="230" height="230" viewBox="0 0 230 230" fill="none" xmlns="http://www.w3.org/2000/svg">
<g clip-path="url(#clip0)">
<circle cx="136.5" cy="157.5" r="72.5" fill="#E5F5ED"/>
<path d="M152.64 92.1426C155.829 96.5729 176.09 122.026 182.623 126.315L158.679 132.312C158.679 132.312 150.383 117.06 144.457 109.737L152.64 92.1426Z" fill="#E8FAFF"/>
<path d="M151.501 94.5557L151.233 94.2171L152.644 92.1289V92.2136C153.152 92.919 157.088 98.3088 161.801 103.684C165.187 107.55 181.088 125.187 184.376 127.318L168.461 131.057C169.49 126.612 162.986 112.333 160.912 108.157C160.176 106.717 158.931 105.601 157.419 105.027C155.906 104.454 154.235 104.463 152.729 105.053C149.733 106.21 147.18 108.284 145.434 110.979C145.11 110.556 144.799 110.132 144.475 109.737L151.501 94.5557Z" fill="#E8FAFF"/>
<path d="M120.191 82.9276C116.155 86.3421 115.393 90.8994 115.958 96.1904C116.089 97.8882 116.569 99.5406 117.369 101.044C120.064 105.855 120.191 113.517 120.684 115.661C121.178 117.806 122.998 116.056 124.339 114.843C125.679 113.63 125.623 114.462 126.258 115.083C126.892 115.704 141.072 125.467 145.39 116.056C148.81 108.947 151.186 101.382 152.444 93.5943C153.63 86.709 153.164 79.485 145.785 78.6384C139.062 77.7178 132.221 78.1981 125.693 80.0493C123.662 80.5735 121.779 81.5584 120.191 82.9276Z" fill="#E8FAFF"/>
<path d="M135.81 78.3153C135.81 78.3153 139.563 69.6522 144.275 68.086C148.988 66.5199 154.603 68.4529 157.087 74.8162C159.57 81.1795 156.804 83.2818 158.258 87.9943C159.167 91.619 159.108 95.4187 158.088 99.0137C157.905 98.8444 154.138 95.5005 152.332 93.5957C152.332 93.5957 154.349 86.0331 149.185 84.8056C144.021 83.5781 146.293 90.2095 146.293 90.2095C148.672 92.8696 150.736 95.7955 152.445 98.9291C155.394 104.277 158.004 115.493 146.998 126.513C135.993 137.532 125.764 115.225 124.875 114.379C124.875 114.379 125.058 112.968 127.499 112.375C129.94 111.783 137.164 114.393 138.914 113.377C140.663 112.361 145.319 108.622 140.833 103.077C136.346 97.5323 130.335 89.377 135.81 78.3153Z" fill="#00984A"/>
<path d="M139.944 72.2905C139.944 72.2905 139.225 65.2358 133.087 66.0683C126.949 66.9007 126.964 72.742 121.8 74.7737C116.636 76.8055 110.315 74.548 102.343 83.07C94.371 91.5921 103.613 99.1265 105.404 100.326C107.196 101.525 114.336 104.149 117.539 99.1829C120.741 94.2164 120.995 92.7349 123.422 90.3222C125.849 87.9095 133.299 83.2676 135.655 80.6291C138.011 77.9907 139.944 72.2905 139.944 72.2905Z" fill="#00984A"/>
<path d="M129.868 76.7196C126.835 78.6949 123.237 78.3281 119.752 78.8642C118.24 79.1308 116.836 79.8215 115.701 80.8556C114.567 81.8898 113.75 83.2249 113.346 84.7055C111.808 90.7725 111.3 96.6984 103.215 96.6138H101.522C99.0955 93.3686 97.3883 88.4445 102.327 83.1252C110.242 74.6596 116.563 76.8466 121.783 74.8148C127.004 72.7831 126.976 66.9136 133.071 66.1094H133.155C135.145 69.6367 133.254 74.4621 129.868 76.7196Z" fill="#006636"/>
<path d="M109.354 144.389L102.088 148.622C102.088 148.622 87.2586 135.613 88.0628 133.511C88.8671 131.409 95.2727 119.402 103.259 126.329C105.389 128.192 106.673 135.67 109.354 144.389Z" fill="#E8FAFF"/>
<path d="M188.368 133.512C185.913 133.512 183.952 133.512 182.936 133.512C176.869 133.512 140.001 180.073 137.321 177.152C134.64 174.231 110.315 142.372 110.315 142.372L99.832 147.833C99.832 147.833 123.522 190.161 126.414 193.505C127.444 194.704 138.266 197.159 154.449 191.812C174.075 185.335 190.866 161.942 193.56 140.905C192.187 140.152 191.004 139.094 190.104 137.813C189.204 136.531 188.61 135.059 188.368 133.512Z" fill="url(#paint0_linear)"/>
<path style="mix-blend-mode:multiply" opacity="0.55" d="M192.149 146.337C190.005 145.081 187.536 142.485 187.183 139.889C187.074 139.082 186.885 138.288 186.619 137.518L186.365 136.926C185.829 135.797 185.306 134.668 184.827 133.525H182.936C176.869 133.525 140.001 180.086 137.321 177.166C134.64 174.245 110.315 142.358 110.315 142.358L99.832 147.832C99.832 147.832 123.522 190.16 126.414 193.49C127.444 194.689 138.266 197.144 154.449 191.797C172.396 185.928 187.917 165.935 192.502 146.421L192.149 146.337Z" fill="url(#paint1_linear)"/>
<path d="M110.806 186.18L94.9754 175.641H88.9648L101.282 194.688L108.76 194.096L110.806 186.18Z" fill="#00984A"/>
<path d="M80.4054 154.004L76.9082 159.605L79.7087 161.354L83.2059 155.753L80.4054 154.004Z" fill="#005027"/>
<path d="M86.1847 157.59L82.6875 163.191L85.488 164.94L88.9852 159.339L86.1847 157.59Z" fill="#005027"/>
<path d="M97.3887 132.468L101.297 134.909L114.898 113.519L110.976 111.078L97.3887 132.468Z" fill="url(#paint2_linear)"/>
<path style="mix-blend-mode:multiply" opacity="0.65" d="M110.048 112.574L107.564 116.553L112.531 117.329L113.97 115.015L110.048 112.574Z" fill="url(#paint3_linear)"/>
<path d="M80.1328 152.402L90.9547 159.118L103.752 138.617C104.105 138.054 104.343 137.427 104.453 136.772C104.564 136.117 104.543 135.446 104.394 134.798C104.245 134.151 103.969 133.539 103.583 132.999C103.196 132.458 102.707 131.999 102.143 131.647L99.9 130.236C99.337 129.883 98.7099 129.645 98.0546 129.535C97.3993 129.425 96.7287 129.445 96.0812 129.594C95.4338 129.744 94.8221 130.019 94.2814 130.406C93.7406 130.792 93.2814 131.281 92.93 131.845L80.1328 152.402Z" fill="url(#paint4_linear)"/>
<path d="M77.1729 154.306L90.5626 162.659C90.8823 162.836 91.2578 162.881 91.6104 162.786C91.9629 162.692 92.2651 162.464 92.4533 162.151L94.6684 158.61C94.8653 158.303 94.9356 157.931 94.8645 157.574C94.7935 157.216 94.5867 156.899 94.2875 156.691L80.8977 148.324C80.5781 148.148 80.2025 148.102 79.85 148.197C79.4974 148.291 79.1953 148.519 79.0071 148.832L76.7919 152.373C76.5907 152.682 76.518 153.056 76.5891 153.417C76.6603 153.779 76.8698 154.098 77.1729 154.306Z" fill="#005027"/>
<path d="M110.427 106.154L106.855 111.875L115.987 117.577L119.559 111.856L110.427 106.154Z" fill="#005027"/>
<path style="mix-blend-mode:multiply" opacity="0.75" d="M91.8869 139.366C91.0245 140.9 90.5264 142.611 90.4309 144.368C90.3355 146.124 90.6454 147.879 91.3367 149.497C92.0811 151.214 92.9243 152.886 93.8623 154.506L103.739 138.675C103.998 138.236 104.188 137.761 104.303 137.264C104.303 137.095 103.16 136.192 103.005 136.051C102.554 135.67 95.5554 135.345 93.834 136.813C93.0106 137.516 92.3468 138.386 91.8869 139.366Z" fill="url(#paint5_linear)"/>
<path d="M114.337 195.802C114.337 195.802 123.903 187.336 123.903 164.945C123.903 152.162 115.522 141.17 107.621 136.98C103.388 134.765 97.0673 132.437 92.8204 135.71C91.7649 136.529 90.947 137.614 90.4509 138.854C89.9549 140.094 89.7987 141.444 89.9986 142.765C90.3721 144.072 91.0008 145.292 91.8484 146.355C92.696 147.419 93.7456 148.303 94.9368 148.959C98.2666 151.075 102.683 152.811 105.547 155.026C111.939 159.978 113.702 184.119 94.3583 194.193L114.337 195.802Z" fill="url(#paint6_linear)"/>
<g style="mix-blend-mode:multiply" opacity="0.75">
<path d="M118.045 174.373C115.108 174.939 112.118 175.19 109.128 175.121C108.229 179.195 106.438 183.018 103.883 186.317C101.329 189.615 98.0748 192.307 94.3555 194.196L112.415 195.607C113.474 194.563 119.47 188.031 121.318 173.371C120.261 173.806 119.165 174.142 118.045 174.373Z" fill="url(#paint7_linear)"/>
</g>
<path d="M117.523 198.484H112.218C111.813 198.484 111.484 198.813 111.484 199.218V201.73C111.484 202.135 111.813 202.463 112.218 202.463H117.523C117.928 202.463 118.257 202.135 118.257 201.73V199.218C118.257 198.813 117.928 198.484 117.523 198.484Z" fill="#1C0A34"/>
<path d="M91.6618 198.484H86.3567C85.9515 198.484 85.623 198.813 85.623 199.218V201.73C85.623 202.135 85.9515 202.463 86.3567 202.463H91.6618C92.067 202.463 92.3955 202.135 92.3955 201.73V199.218C92.3955 198.813 92.067 198.484 91.6618 198.484Z" fill="#1C0A34"/>
<path d="M123.254 191.346H80.6155C79.9142 191.346 79.3457 191.914 79.3457 192.616V198.4C79.3457 199.102 79.9142 199.67 80.6155 199.67H123.254C123.955 199.67 124.524 199.102 124.524 198.4V192.616C124.524 191.914 123.955 191.346 123.254 191.346Z" fill="#005027"/>
<path d="M95.2611 143.444C96.7104 143.444 97.8854 142.269 97.8854 140.82C97.8854 139.37 96.7104 138.195 95.2611 138.195C93.8117 138.195 92.6367 139.37 92.6367 140.82C92.6367 142.269 93.8117 143.444 95.2611 143.444Z" fill="#005027"/>
<path d="M101.015 169.926H73.4316V177.841H101.015V169.926Z" fill="#005027"/>
<path d="M112.135 192.982V201.448C112.135 201.448 82.3921 204.185 80.9812 202.435C79.5702 200.686 90.632 189.215 93.4679 189.215C96.3039 189.215 103.26 190.964 112.135 192.982Z" fill="#E8FAFF"/>
<path d="M155.575 228.821H217.445C215.865 196.905 208.231 155.297 204.182 147.24C198.538 136.08 180.281 122.168 180.281 122.168L158.835 131.664C151.85 144.94 149.184 159.276 149.537 161.872C149.819 164.2 155.589 217.462 155.575 228.821Z" fill="url(#paint8_linear)"/>
<path d="M106.715 190.639L106.32 202.322C106.32 202.322 145.192 203.112 148.648 202.322C152.105 201.532 197.283 164.763 186.123 145.009C172.394 120.812 160.289 158.569 157.834 163.775C155.379 168.981 144.881 183.979 141.791 184.854C138.701 185.729 106.715 190.639 106.715 190.639Z" fill="url(#paint9_linear)"/>
<path style="mix-blend-mode:multiply" opacity="0.55" d="M148.704 202.323C150.948 201.815 177.163 180.411 186.602 161.321C186.066 165.822 185.614 170.365 187.039 174.796C188.817 180.284 190.313 185.928 188.733 191.727C187.42 196.552 184.796 201.096 184.965 206.373C185.248 214.838 192.147 220.806 193.36 228.821H217.431C215.851 196.905 208.218 155.297 204.168 147.24C198.524 136.08 180.267 122.168 180.267 122.168L172.634 123.847C174.708 127.092 180.239 135.247 182.186 138.605C180.775 146.055 176.951 156.948 173.579 162.14C171.42 165.428 168.68 168.297 165.494 170.605C160.5 174.485 157.819 182.429 154.376 187.395C149.085 195.057 130.39 196.694 123.096 196.355C117.452 196.101 112.119 195.283 106.546 196.355L106.334 202.549C106.334 202.549 145.586 203.029 148.704 202.323Z" fill="url(#paint10_linear)"/>
<path d="M148 218H28V229H148V218Z" fill="#018949"/>
<path d="M164 202H12V218H164V202Z" fill="#005027"/>
<g clip-path="url(#clip1)">
<path d="M56.33 198.421H56.28C55.609 198.421 54.9655 198.154 54.491 197.68C54.0166 197.205 53.75 196.562 53.75 195.891V167.811H58.85V195.891C58.85 196.56 58.5848 197.202 58.1125 197.676C57.6402 198.15 56.9993 198.418 56.33 198.421Z" fill="url(#paint11_linear)"/>
<path d="M54.3105 179.471V195.711C54.3105 197.101 55.1905 197.401 56.3105 197.401C57.4005 197.401 58.3105 197.111 58.3105 195.711V179.471H54.3105Z" fill="#00984A"/>
<path style="mix-blend-mode:multiply" opacity="0.65" d="M53.75 167.9V169.71L58.85 169.48V167.9H53.75Z" fill="url(#paint12_linear)"/>
<path d="M59.0005 166H53.6105C53.1687 166 52.8105 166.358 52.8105 166.8V168.31C52.8105 168.752 53.1687 169.11 53.6105 169.11H59.0005C59.4424 169.11 59.8005 168.752 59.8005 168.31V166.8C59.8005 166.358 59.4424 166 59.0005 166Z" fill="#11E84C"/>
<path style="mix-blend-mode:multiply" opacity="0.32" d="M59.0008 168H53.6008C53.3886 168 53.1851 167.916 53.0351 167.766C52.8851 167.616 52.8008 167.412 52.8008 167.2V168.31C52.8008 168.522 52.8851 168.726 53.0351 168.876C53.1851 169.026 53.3886 169.11 53.6008 169.11H59.0008C59.213 169.11 59.4164 169.026 59.5665 168.876C59.7165 168.726 59.8008 168.522 59.8008 168.31V167.17C59.8048 167.277 59.7871 167.385 59.7487 167.485C59.7103 167.586 59.652 167.678 59.5773 167.755C59.5027 167.833 59.4131 167.894 59.314 167.936C59.215 167.978 59.1084 168 59.0008 168Z" fill="url(#paint13_linear)"/>
<g style="mix-blend-mode:screen" opacity="0.75">
<path d="M56.5791 178.289C56.8332 178.289 57.0391 178.083 57.0391 177.829C57.0391 177.575 56.8332 177.369 56.5791 177.369C56.3251 177.369 56.1191 177.575 56.1191 177.829C56.1191 178.083 56.3251 178.289 56.5791 178.289Z" fill="white"/>
</g>
<g style="mix-blend-mode:screen" opacity="0.75">
<path d="M56.1202 174.65C56.3742 174.65 56.5802 174.445 56.5802 174.19C56.5802 173.936 56.3742 173.73 56.1202 173.73C55.8661 173.73 55.6602 173.936 55.6602 174.19C55.6602 174.445 55.8661 174.65 56.1202 174.65Z" fill="white"/>
</g>
<g style="mix-blend-mode:screen" opacity="0.75">
<path d="M56.2998 186.029C56.5539 186.029 56.7598 185.823 56.7598 185.569C56.7598 185.315 56.5539 185.109 56.2998 185.109C56.0458 185.109 55.8398 185.315 55.8398 185.569C55.8398 185.823 56.0458 186.029 56.2998 186.029Z" fill="white"/>
</g>
<g style="mix-blend-mode:screen" opacity="0.75">
<path d="M56.1202 193.221C56.3742 193.221 56.5802 193.015 56.5802 192.761C56.5802 192.507 56.3742 192.301 56.1202 192.301C55.8661 192.301 55.6602 192.507 55.6602 192.761C55.6602 193.015 55.8661 193.221 56.1202 193.221Z" fill="white"/>
</g>
<g style="mix-blend-mode:screen" opacity="0.75">
<path d="M55.0398 181.72C55.1944 181.72 55.3198 181.595 55.3198 181.44C55.3198 181.286 55.1944 181.16 55.0398 181.16C54.8851 181.16 54.7598 181.286 54.7598 181.44C54.7598 181.595 54.8851 181.72 55.0398 181.72Z" fill="white"/>
</g>
<g style="mix-blend-mode:screen" opacity="0.75">
<path d="M56.8601 175.441C57.0147 175.441 57.1401 175.315 57.1401 175.161C57.1401 175.006 57.0147 174.881 56.8601 174.881C56.7054 174.881 56.5801 175.006 56.5801 175.161C56.5801 175.315 56.7054 175.441 56.8601 175.441Z" fill="white"/>
</g>
<g style="mix-blend-mode:screen" opacity="0.75">
<path d="M55.6609 179.169C55.8155 179.169 55.9409 179.044 55.9409 178.889C55.9409 178.735 55.8155 178.609 55.6609 178.609C55.5062 178.609 55.3809 178.735 55.3809 178.889C55.3809 179.044 55.5062 179.169 55.6609 179.169Z" fill="white"/>
</g>
<g style="mix-blend-mode:screen" opacity="0.75">
<path d="M56.6804 180.611C56.835 180.611 56.9604 180.485 56.9604 180.331C56.9604 180.176 56.835 180.051 56.6804 180.051C56.5257 180.051 56.4004 180.176 56.4004 180.331C56.4004 180.485 56.5257 180.611 56.6804 180.611Z" fill="white"/>
</g>
<g style="mix-blend-mode:screen" opacity="0.75">
<path d="M56.3991 172.191C56.5538 172.191 56.6791 172.065 56.6791 171.911C56.6791 171.756 56.5538 171.631 56.3991 171.631C56.2445 171.631 56.1191 171.756 56.1191 171.911C56.1191 172.065 56.2445 172.191 56.3991 172.191Z" fill="white"/>
</g>
<g style="mix-blend-mode:screen" opacity="0.75">
<path d="M56.1198 182.74C56.2745 182.74 56.3998 182.614 56.3998 182.46C56.3998 182.305 56.2745 182.18 56.1198 182.18C55.9652 182.18 55.8398 182.305 55.8398 182.46C55.8398 182.614 55.9652 182.74 56.1198 182.74Z" fill="white"/>
</g>
<g style="mix-blend-mode:screen" opacity="0.75">
<path d="M56.7702 183.97C56.9249 183.97 57.0502 183.845 57.0502 183.69C57.0502 183.536 56.9249 183.41 56.7702 183.41C56.6156 183.41 56.4902 183.536 56.4902 183.69C56.4902 183.845 56.6156 183.97 56.7702 183.97Z" fill="white"/>
</g>
<g style="mix-blend-mode:screen" opacity="0.75">
<path d="M55.6609 189.191C55.8155 189.191 55.9409 189.065 55.9409 188.911C55.9409 188.756 55.8155 188.631 55.6609 188.631C55.5062 188.631 55.3809 188.756 55.3809 188.911C55.3809 189.065 55.5062 189.191 55.6609 189.191Z" fill="white"/>
</g>
<g style="mix-blend-mode:screen" opacity="0.75">
<path d="M57.0495 190.611C57.2042 190.611 57.3295 190.485 57.3295 190.331C57.3295 190.176 57.2042 190.051 57.0495 190.051C56.8949 190.051 56.7695 190.176 56.7695 190.331C56.7695 190.485 56.8949 190.611 57.0495 190.611Z" fill="white"/>
</g>
<path d="M44.56 198.421H44.51C43.8425 198.415 43.2041 198.146 42.7339 197.672C42.2638 197.199 42 196.558 42 195.891V167.811H47.1V195.891C47.1 196.224 47.0342 196.553 46.9065 196.861C46.7787 197.169 46.5914 197.448 46.3554 197.683C46.1195 197.918 45.8394 198.104 45.5313 198.231C45.2232 198.357 44.8931 198.422 44.56 198.421Z" fill="url(#paint14_linear)"/>
<path d="M42.5391 173.449V195.709C42.5391 197.099 43.4191 197.399 44.5391 197.399C45.6291 197.399 46.5391 197.109 46.5391 195.709V173.449H42.5391Z" fill="#00984A"/>
<path style="mix-blend-mode:multiply" opacity="0.65" d="M41.9805 167.9V169.71L47.0905 169.48V167.9H41.9805Z" fill="url(#paint15_linear)"/>
<path d="M47.2291 166H41.8391C41.3972 166 41.0391 166.358 41.0391 166.8V168.31C41.0391 168.752 41.3972 169.11 41.8391 169.11H47.2291C47.6709 169.11 48.0291 168.752 48.0291 168.31V166.8C48.0291 166.358 47.6709 166 47.2291 166Z" fill="#11E84C"/>
<path style="mix-blend-mode:multiply" opacity="0.32" d="M47.2293 168H41.8293C41.6171 168 41.4136 167.916 41.2636 167.766C41.1136 167.616 41.0293 167.412 41.0293 167.2V168.31C41.0293 168.522 41.1136 168.726 41.2636 168.876C41.4136 169.026 41.6171 169.11 41.8293 169.11H47.2293C47.4415 169.11 47.645 169.026 47.795 168.876C47.945 168.726 48.0293 168.522 48.0293 168.31V167.17C48.0333 167.277 48.0156 167.385 47.9772 167.485C47.9388 167.586 47.8806 167.678 47.8059 167.755C47.7312 167.833 47.6416 167.894 47.5425 167.936C47.4435 167.978 47.3369 168 47.2293 168Z" fill="url(#paint16_linear)"/>
<g style="mix-blend-mode:screen" opacity="0.75">
<path d="M44.8096 178.289C45.0637 178.289 45.2696 178.083 45.2696 177.829C45.2696 177.575 45.0637 177.369 44.8096 177.369C44.5556 177.369 44.3496 177.575 44.3496 177.829C44.3496 178.083 44.5556 178.289 44.8096 178.289Z" fill="white"/>
</g>
<g style="mix-blend-mode:screen" opacity="0.75">
<path d="M44.3506 174.65C44.6047 174.65 44.8106 174.445 44.8106 174.19C44.8106 173.936 44.6047 173.73 44.3506 173.73C44.0966 173.73 43.8906 173.936 43.8906 174.19C43.8906 174.445 44.0966 174.65 44.3506 174.65Z" fill="white"/>
</g>
<g style="mix-blend-mode:screen" opacity="0.75">
<path d="M44.5401 186.029C44.7941 186.029 45.0001 185.823 45.0001 185.569C45.0001 185.315 44.7941 185.109 44.5401 185.109C44.286 185.109 44.0801 185.315 44.0801 185.569C44.0801 185.823 44.286 186.029 44.5401 186.029Z" fill="white"/>
</g>
<g style="mix-blend-mode:screen" opacity="0.75">
<path d="M44.3506 193.221C44.6047 193.221 44.8106 193.015 44.8106 192.761C44.8106 192.507 44.6047 192.301 44.3506 192.301C44.0966 192.301 43.8906 192.507 43.8906 192.761C43.8906 193.015 44.0966 193.221 44.3506 193.221Z" fill="white"/>
</g>
<g style="mix-blend-mode:screen" opacity="0.75">
<path d="M43.2702 181.72C43.4249 181.72 43.5502 181.595 43.5502 181.44C43.5502 181.286 43.4249 181.16 43.2702 181.16C43.1156 181.16 42.9902 181.286 42.9902 181.44C42.9902 181.595 43.1156 181.72 43.2702 181.72Z" fill="white"/>
</g>
<g style="mix-blend-mode:screen" opacity="0.75">
<path d="M45.0905 175.441C45.2452 175.441 45.3705 175.315 45.3705 175.161C45.3705 175.006 45.2452 174.881 45.0905 174.881C44.9359 174.881 44.8105 175.006 44.8105 175.161C44.8105 175.315 44.9359 175.441 45.0905 175.441Z" fill="white"/>
</g>
<g style="mix-blend-mode:screen" opacity="0.75">
<path d="M43.8894 179.169C44.044 179.169 44.1694 179.044 44.1694 178.889C44.1694 178.735 44.044 178.609 43.8894 178.609C43.7347 178.609 43.6094 178.735 43.6094 178.889C43.6094 179.044 43.7347 179.169 43.8894 179.169Z" fill="white"/>
</g>
<g style="mix-blend-mode:screen" opacity="0.75">
<path d="M44.9109 180.611C45.0655 180.611 45.1909 180.485 45.1909 180.331C45.1909 180.176 45.0655 180.051 44.9109 180.051C44.7562 180.051 44.6309 180.176 44.6309 180.331C44.6309 180.485 44.7562 180.611 44.9109 180.611Z" fill="white"/>
</g>
<g style="mix-blend-mode:screen" opacity="0.75">
<path d="M44.6296 172.191C44.7842 172.191 44.9096 172.065 44.9096 171.911C44.9096 171.756 44.7842 171.631 44.6296 171.631C44.475 171.631 44.3496 171.756 44.3496 171.911C44.3496 172.065 44.475 172.191 44.6296 172.191Z" fill="white"/>
</g>
<g style="mix-blend-mode:screen" opacity="0.75">
<path d="M44.3503 182.74C44.505 182.74 44.6303 182.614 44.6303 182.46C44.6303 182.305 44.505 182.18 44.3503 182.18C44.1957 182.18 44.0703 182.305 44.0703 182.46C44.0703 182.614 44.1957 182.74 44.3503 182.74Z" fill="white"/>
</g>
<g style="mix-blend-mode:screen" opacity="0.75">
<path d="M45.0007 183.97C45.1553 183.97 45.2807 183.845 45.2807 183.69C45.2807 183.536 45.1553 183.41 45.0007 183.41C44.8461 183.41 44.7207 183.536 44.7207 183.69C44.7207 183.845 44.8461 183.97 45.0007 183.97Z" fill="white"/>
</g>
<g style="mix-blend-mode:screen" opacity="0.75">
<path d="M43.8894 189.191C44.044 189.191 44.1694 189.065 44.1694 188.911C44.1694 188.756 44.044 188.631 43.8894 188.631C43.7347 188.631 43.6094 188.756 43.6094 188.911C43.6094 189.065 43.7347 189.191 43.8894 189.191Z" fill="white"/>
</g>
<g style="mix-blend-mode:screen" opacity="0.75">
<path d="M45.28 190.611C45.4346 190.611 45.56 190.485 45.56 190.331C45.56 190.176 45.4346 190.051 45.28 190.051C45.1254 190.051 45 190.176 45 190.331C45 190.485 45.1254 190.611 45.28 190.611Z" fill="white"/>
</g>
<path d="M32.7909 198.421H32.7409C32.0699 198.421 31.4264 198.154 30.952 197.68C30.4775 197.205 30.2109 196.562 30.2109 195.891V167.811H35.3109V195.891C35.3109 196.56 35.0458 197.202 34.5735 197.676C34.1012 198.15 33.4602 198.418 32.7909 198.421Z" fill="url(#paint17_linear)"/>
<path d="M30.7695 182.811V195.711C30.7695 197.101 31.6495 197.401 32.7695 197.401C33.8595 197.401 34.7695 197.111 34.7695 195.711V182.811H30.7695Z" fill="#00984A"/>
<path style="mix-blend-mode:multiply" opacity="0.65" d="M30.2109 167.9V169.71L35.3209 169.48V167.9H30.2109Z" fill="url(#paint18_linear)"/>
<path d="M35.4595 166H30.0695C29.6277 166 29.2695 166.358 29.2695 166.8V168.31C29.2695 168.752 29.6277 169.11 30.0695 169.11H35.4595C35.9014 169.11 36.2595 168.752 36.2595 168.31V166.8C36.2595 166.358 35.9014 166 35.4595 166Z" fill="#11E84C"/>
<path style="mix-blend-mode:multiply" opacity="0.32" d="M35.4595 168H30.0695C29.8574 168 29.6539 167.916 29.5038 167.766C29.3538 167.616 29.2695 167.412 29.2695 167.2V168.31C29.2695 168.522 29.3538 168.726 29.5038 168.876C29.6539 169.026 29.8574 169.11 30.0695 169.11H35.4695C35.6817 169.11 35.8852 169.026 36.0352 168.876C36.1852 168.726 36.2695 168.522 36.2695 168.31V167.17C36.2736 167.278 36.2556 167.386 36.2166 167.488C36.1776 167.589 36.1184 167.681 36.0426 167.759C35.9669 167.836 35.8761 167.898 35.7759 167.939C35.6756 167.981 35.568 168.001 35.4595 168Z" fill="url(#paint19_linear)"/>
<g style="mix-blend-mode:screen" opacity="0.75">
<path d="M33.0401 178.289C33.2941 178.289 33.5001 178.083 33.5001 177.829C33.5001 177.575 33.2941 177.369 33.0401 177.369C32.786 177.369 32.5801 177.575 32.5801 177.829C32.5801 178.083 32.786 178.289 33.0401 178.289Z" fill="white"/>
</g>
<g style="mix-blend-mode:screen" opacity="0.75">
<path d="M32.5791 174.65C32.8332 174.65 33.0391 174.445 33.0391 174.19C33.0391 173.936 32.8332 173.73 32.5791 173.73C32.3251 173.73 32.1191 173.936 32.1191 174.19C32.1191 174.445 32.3251 174.65 32.5791 174.65Z" fill="white"/>
</g>
<g style="mix-blend-mode:screen" opacity="0.75">
<path d="M32.7705 186.029C33.0246 186.029 33.2305 185.823 33.2305 185.569C33.2305 185.315 33.0246 185.109 32.7705 185.109C32.5165 185.109 32.3105 185.315 32.3105 185.569C32.3105 185.823 32.5165 186.029 32.7705 186.029Z" fill="white"/>
</g>
<g style="mix-blend-mode:screen" opacity="0.75">
<path d="M32.5791 193.221C32.8332 193.221 33.0391 193.015 33.0391 192.761C33.0391 192.507 32.8332 192.301 32.5791 192.301C32.3251 192.301 32.1191 192.507 32.1191 192.761C32.1191 193.015 32.3251 193.221 32.5791 193.221Z" fill="white"/>
</g>
<g style="mix-blend-mode:screen" opacity="0.75">
<path d="M31.5007 181.72C31.6553 181.72 31.7807 181.595 31.7807 181.44C31.7807 181.286 31.6553 181.16 31.5007 181.16C31.3461 181.16 31.2207 181.286 31.2207 181.44C31.2207 181.595 31.3461 181.72 31.5007 181.72Z" fill="white"/>
</g>
<g style="mix-blend-mode:screen" opacity="0.75">
<path d="M33.3191 175.441C33.4737 175.441 33.5991 175.315 33.5991 175.161C33.5991 175.006 33.4737 174.881 33.3191 174.881C33.1644 174.881 33.0391 175.006 33.0391 175.161C33.0391 175.315 33.1644 175.441 33.3191 175.441Z" fill="white"/>
</g>
<g style="mix-blend-mode:screen" opacity="0.75">
<path d="M32.1198 179.169C32.2745 179.169 32.3998 179.044 32.3998 178.889C32.3998 178.735 32.2745 178.609 32.1198 178.609C31.9652 178.609 31.8398 178.735 31.8398 178.889C31.8398 179.044 31.9652 179.169 32.1198 179.169Z" fill="white"/>
</g>
<g style="mix-blend-mode:screen" opacity="0.75">
<path d="M33.1394 180.611C33.294 180.611 33.4194 180.485 33.4194 180.331C33.4194 180.176 33.294 180.051 33.1394 180.051C32.9847 180.051 32.8594 180.176 32.8594 180.331C32.8594 180.485 32.9847 180.611 33.1394 180.611Z" fill="white"/>
</g>
<g style="mix-blend-mode:screen" opacity="0.75">
<path d="M32.8601 172.191C33.0147 172.191 33.1401 172.065 33.1401 171.911C33.1401 171.756 33.0147 171.631 32.8601 171.631C32.7054 171.631 32.5801 171.756 32.5801 171.911C32.5801 172.065 32.7054 172.191 32.8601 172.191Z" fill="white"/>
</g>
<g style="mix-blend-mode:screen" opacity="0.75">
<path d="M32.5808 182.74C32.7354 182.74 32.8608 182.614 32.8608 182.46C32.8608 182.305 32.7354 182.18 32.5808 182.18C32.4261 182.18 32.3008 182.305 32.3008 182.46C32.3008 182.614 32.4261 182.74 32.5808 182.74Z" fill="white"/>
</g>
<g style="mix-blend-mode:screen" opacity="0.75">
<path d="M33.2292 183.97C33.3839 183.97 33.5092 183.845 33.5092 183.69C33.5092 183.536 33.3839 183.41 33.2292 183.41C33.0746 183.41 32.9492 183.536 32.9492 183.69C32.9492 183.845 33.0746 183.97 33.2292 183.97Z" fill="white"/>
</g>
<g style="mix-blend-mode:screen" opacity="0.75">
<path d="M32.1198 189.191C32.2745 189.191 32.3998 189.065 32.3998 188.911C32.3998 188.756 32.2745 188.631 32.1198 188.631C31.9652 188.631 31.8398 188.756 31.8398 188.911C31.8398 189.065 31.9652 189.191 32.1198 189.191Z" fill="white"/>
</g>
<g style="mix-blend-mode:screen" opacity="0.75">
<path d="M33.5105 190.611C33.6651 190.611 33.7905 190.485 33.7905 190.331C33.7905 190.176 33.6651 190.051 33.5105 190.051C33.3558 190.051 33.2305 190.176 33.2305 190.331C33.2305 190.485 33.3558 190.611 33.5105 190.611Z" fill="white"/>
</g>
<path d="M67.1201 174.65H24.0801V177.83H67.1201V174.65Z" fill="#024131"/>
<path d="M67.1201 190.061H24.0801V193.241H67.1201V190.061Z" fill="#024131"/>
<path d="M67.1201 198.42H24.0801V201.6H67.1201V198.42Z" fill="#024131"/>
<path d="M25.18 171.631H22V201.591H25.18V171.631Z" fill="#024131"/>
<path d="M67.1195 171.631H63.9395V201.591H67.1195V171.631Z" fill="#024131"/>
</g>
</g>
<defs>
<linearGradient id="paint0_linear" x1="154.461" y1="155.979" x2="75.5882" y2="202.501" gradientUnits="userSpaceOnUse">
<stop stop-color="#F6F8FF"/>
<stop offset="1" stop-color="#D2ECFF"/>
</linearGradient>
<linearGradient id="paint1_linear" x1="154.467" y1="155.959" x2="75.5933" y2="202.481" gradientUnits="userSpaceOnUse">
<stop stop-color="#12EE4C"/>
<stop offset="1" stop-color="#00984A"/>
</linearGradient>
<linearGradient id="paint2_linear" x1="106.144" y1="111.078" x2="106.144" y2="134.909" gradientUnits="userSpaceOnUse">
<stop stop-color="#12EE4C"/>
<stop offset="1" stop-color="#00984A"/>
</linearGradient>
<linearGradient id="paint3_linear" x1="113.088" y1="111.889" x2="103.262" y2="127.648" gradientUnits="userSpaceOnUse">
<stop offset="0.56" stop-color="#867AB0"/>
<stop offset="1" stop-color="#D4D0EB"/>
</linearGradient>
<linearGradient id="paint4_linear" x1="92.3281" y1="129.465" x2="92.3281" y2="159.118" gradientUnits="userSpaceOnUse">
<stop stop-color="#12EE4C"/>
<stop offset="1" stop-color="#00984A"/>
</linearGradient>
<linearGradient id="paint5_linear" x1="102.702" y1="139.632" x2="89.2919" y2="148.775" gradientUnits="userSpaceOnUse">
<stop stop-color="#7D4CCA"/>
<stop offset="0.53" stop-color="#1B2AAB"/>
<stop offset="1" stop-color="#17256E"/>
</linearGradient>
<linearGradient id="paint6_linear" x1="106.909" y1="134.086" x2="106.909" y2="195.802" gradientUnits="userSpaceOnUse">
<stop stop-color="#12EE4C"/>
<stop offset="1" stop-color="#00984A"/>
</linearGradient>
<linearGradient id="paint7_linear" x1="107.837" y1="173.371" x2="107.837" y2="195.607" gradientUnits="userSpaceOnUse">
<stop stop-color="#12EE4C"/>
<stop offset="1" stop-color="#00984A"/>
</linearGradient>
<linearGradient id="paint8_linear" x1="183.475" y1="122.168" x2="183.475" y2="228.821" gradientUnits="userSpaceOnUse">
<stop stop-color="#12EE4C"/>
<stop offset="1" stop-color="#00984A"/>
</linearGradient>
<linearGradient id="paint9_linear" x1="147.106" y1="136.986" x2="147.106" y2="202.673" gradientUnits="userSpaceOnUse">
<stop stop-color="#12EE4C"/>
<stop offset="1" stop-color="#00984A"/>
</linearGradient>
<linearGradient id="paint10_linear" x1="-37376.3" y1="4495.99" x2="-35536.5" y2="17572.9" gradientUnits="userSpaceOnUse">
<stop stop-color="#B0C9F8"/>
<stop offset="1" stop-color="#71BBF2"/>
</linearGradient>
<linearGradient id="paint11_linear" x1="63.97" y1="177.131" x2="43.29" y2="191.641" gradientUnits="userSpaceOnUse">
<stop stop-color="#F0EEF7"/>
<stop offset="0.4" stop-color="#E6E2F1"/>
<stop offset="0.73" stop-color="#E4E0F0"/>
<stop offset="0.91" stop-color="#DCD8EE"/>
<stop offset="1" stop-color="#D4D0EB"/>
</linearGradient>
<linearGradient id="paint12_linear" x1="58.11" y1="167.42" x2="37.12" y2="182.15" gradientUnits="userSpaceOnUse">
<stop offset="0.56" stop-color="#867AB0"/>
<stop offset="1" stop-color="#D4D0EB"/>
</linearGradient>
<linearGradient id="paint13_linear" x1="309.791" y1="167.655" x2="300.648" y2="190.852" gradientUnits="userSpaceOnUse">
<stop offset="0.56" stop-color="#867AB0"/>
<stop offset="1" stop-color="#D4D0EB"/>
</linearGradient>
<linearGradient id="paint14_linear" x1="196.02" y1="508.5" x2="40.7516" y2="526.651" gradientUnits="userSpaceOnUse">
<stop stop-color="#F0EEF7"/>
<stop offset="0.4" stop-color="#E6E2F1"/>
<stop offset="0.73" stop-color="#E4E0F0"/>
<stop offset="0.91" stop-color="#DCD8EE"/>
<stop offset="1" stop-color="#D4D0EB"/>
</linearGradient>
<linearGradient id="paint15_linear" x1="166.358" y1="170.471" x2="133.856" y2="234.865" gradientUnits="userSpaceOnUse">
<stop offset="0.56" stop-color="#867AB0"/>
<stop offset="1" stop-color="#D4D0EB"/>
</linearGradient>
<linearGradient id="paint16_linear" x1="215.623" y1="167.655" x2="206.48" y2="190.852" gradientUnits="userSpaceOnUse">
<stop offset="0.56" stop-color="#867AB0"/>
<stop offset="1" stop-color="#D4D0EB"/>
</linearGradient>
<linearGradient id="paint17_linear" x1="124.204" y1="508.5" x2="-31.0645" y2="526.651" gradientUnits="userSpaceOnUse">
<stop stop-color="#F0EEF7"/>
<stop offset="0.4" stop-color="#E6E2F1"/>
<stop offset="0.73" stop-color="#E4E0F0"/>
<stop offset="0.91" stop-color="#DCD8EE"/>
<stop offset="1" stop-color="#D4D0EB"/>
</linearGradient>
<linearGradient id="paint18_linear" x1="94.4436" y1="170.471" x2="61.9414" y2="234.865" gradientUnits="userSpaceOnUse">
<stop offset="0.56" stop-color="#867AB0"/>
<stop offset="1" stop-color="#D4D0EB"/>
</linearGradient>
<linearGradient id="paint19_linear" x1="121.537" y1="167.655" x2="112.365" y2="190.89" gradientUnits="userSpaceOnUse">
<stop offset="0.56" stop-color="#867AB0"/>
<stop offset="1" stop-color="#D4D0EB"/>
</linearGradient>
<clipPath id="clip0">
<rect width="230" height="230" fill="white"/>
</clipPath>
<clipPath id="clip1">
<rect x="22" y="166" width="45.12" height="35.59" fill="white"/>
</clipPath>
</defs>
</svg>
